<svg width="24" height="25" viewBox="0 0 24 25" fill="none" xmlns="http://www.w3.org/2000/svg">
<path fill-rule="evenodd" clip-rule="evenodd" d="M12 0.588318C5.3724 0.588318 0 5.96912 0 12.6087C0 17.9187 3.438 22.4247 8.2068 24.0135C8.8068 24.1239 9.0252 23.7531 9.0252 23.4339C9.0252 23.1495 9.0156 22.3923 9.0096 21.3903C5.6712 22.1163 4.9668 19.7787 4.9668 19.7787C4.422 18.3891 3.6348 18.0195 3.6348 18.0195C2.5452 17.2755 3.7176 17.2899 3.7176 17.2899C4.9212 17.3739 5.5548 18.5283 5.5548 18.5283C6.6252 20.3643 8.364 19.8339 9.0468 19.5267C9.1572 18.7503 9.4668 18.2211 9.81 17.9211C7.146 17.6175 4.344 16.5855 4.344 11.9799C4.344 10.6683 4.812 9.59432 5.5788 8.75432C5.4552 8.45072 5.0436 7.22792 5.6964 5.57432C5.6964 5.57432 6.7044 5.25032 8.9964 6.80552C9.97532 6.53854 10.9853 6.40255 12 6.40112C13.02 6.40592 14.046 6.53912 15.0048 6.80552C17.2956 5.25032 18.3012 5.57312 18.3012 5.57312C18.9564 7.22792 18.5436 8.45072 18.4212 8.75432C19.1892 9.59432 19.6548 10.6683 19.6548 11.9799C19.6548 16.5975 16.848 17.6139 14.1756 17.9115C14.6064 18.2823 14.9892 19.0155 14.9892 20.1375C14.9892 21.7431 14.9748 23.0403 14.9748 23.4339C14.9748 23.7555 15.1908 24.1299 15.8004 24.0123C18.19 23.2108 20.2672 21.6787 21.7386 19.6324C23.2099 17.5861 24.001 15.1291 24 12.6087C24 5.96912 18.6264 0.588318 12 0.588318Z" fill="#F7F7F7"/>
</svg>
