<svg xmlns="http://www.w3.org/2000/svg" viewBox="0 0 24 24"><path d="M12,0A12,12,0,1,0,24,12,12.01368,12.01368,0,0,0,12,0Zm9.128,7.40712H17.58648a18.854,18.854,0,0,0-2.36285-5.10558A10.272,10.272,0,0,1,21.128,7.40712ZM22.22222,12a10.19173,10.19173,0,0,1-.39692,2.8138H17.87478a15.81023,15.81023,0,0,0,.111-5.6289h3.83908A10.1882,10.1882,0,0,1,22.22222,12ZM7.94314,14.8138a14.192,14.192,0,0,1-.12359-5.6289h8.36122a14.09452,14.09452,0,0,1-.124,5.6289ZM1.77778,12a10.1882,10.1882,0,0,1,.39735-2.8151H6.015a15.91853,15.91853,0,0,0,.11068,5.6289H2.1747A10.19173,10.19173,0,0,1,1.77778,12ZM12.68555,1.80333a18.558,18.558,0,0,1,3.04514,5.60379H8.26877a18.56073,18.56073,0,0,1,3.04438-5.60373c.22721-.01514.45573-.02561.68685-.02561C12.23058,1.77778,12.45866,1.78819,12.68555,1.80333ZM8.775,2.30208a18.867,18.867,0,0,0-2.3622,5.105H2.872A10.27177,10.27177,0,0,1,8.775,2.30208ZM2.87131,16.59158H6.57389A22.84631,22.84631,0,0,0,8.931,21.75087,10.27084,10.27084,0,0,1,2.87131,16.59158Zm8.46908,5.6071a23.06149,23.06149,0,0,1-2.89963-5.6071h7.11773a23.05976,23.05976,0,0,1-2.90029,5.6072c-.21788.01389-.43685.02344-.6582.02344C11.77821,22.22222,11.5587,22.21267,11.34039,22.19868Zm3.72732-.44738a22.81057,22.81057,0,0,0,2.35764-5.15972h3.70334A10.27125,10.27125,0,0,1,15.06771,21.7513Z"/></svg>