<svg xmlns="http://www.w3.org/2000/svg" viewBox="0 0 92.99259 128"><path d="M89.86027,70.15723l.04468-.052c.369-.41821.64111-.78027.52734-1.27246a1.56406,1.56406,0,0,0-.53467-.80175,1.17834,1.17834,0,0,1-.10632-1.6128.9909.9909,0,0,0,.26526-.5747c.03735-.49976-.35034-.92481-.94861-1.51929-.12292-.11987-.3031-.3-.45166-.46533a1.18049,1.18049,0,0,1,.12048-1.69654.61609.61609,0,0,0,.25293-.51538c.00244-.2854-.15356-.44189-.48266-.70947a2.5,2.5,0,0,1-.8324-1.00757,1.53519,1.53519,0,0,1-.09192-1.01172,1.96375,1.96375,0,0,0-.01684-.98,4.05719,4.05719,0,0,0-1.11377-1.7456,1.83706,1.83706,0,0,1-.78772-1.97852c0-.00806.00451-.02368.00451-.02881a1.54714,1.54714,0,0,0,.03089-.58447,1.36123,1.36123,0,0,0-.58643-.95337,3.26956,3.26956,0,0,1-.77087-.915,4.693,4.693,0,0,1,.62182-4.45825.61883.61883,0,0,0,.13477-.56494c-.02112-.301-.18457-.438-.52979-.66016a1.88891,1.88891,0,0,1-.79223-.80884,1.76083,1.76083,0,0,1,.0542-1.52124,2.858,2.858,0,0,0,.08508-2.155c-.06836-.20263-.13733-.45361-.20569-.71142a4.8337,4.8337,0,0,0-.60559-1.57715,2.53892,2.53892,0,0,0-.42554-.38574c-.05456-.04028-.13037-.10132-.182-.14478a1.193,1.193,0,0,1-.426-.79394,2.62558,2.62558,0,0,1,.026-.70752c.00244-.00488.005-.03052.00745-.0354a1.97471,1.97471,0,0,0-.05469-.977c-.24109-.88159-.93872-1.717-1.2251-1.717a.15526.15526,0,0,0-.052.01171l-.01684.00977a.98406.98406,0,0,0,.05468.39966,2.96919,2.96919,0,0,1,.12293,1.41382,2.20153,2.20153,0,0,1-.4137.90625,1.18391,1.18391,0,0,1-2.10034-.44678c-.00732-.0332-.01428-.06885-.02368-.102a.59674.59674,0,0,0-.3335-.34741A1.18106,1.18106,0,0,1,77.528,35.051a6.235,6.235,0,0,1,.96485-1.80738l.01184-.0188a3.07814,3.07814,0,0,0,.52991-1.00268.23691.23691,0,0,0-.038-.04517.10035.10035,0,0,0-.0404-.03052,1.18453,1.18453,0,0,1-.43238-1.79785c.3429-.43969.74732-.9436,1.20142-1.49463l.00439-.00683c.14478-.29126,1.75489-3.75391,1.02442-10.51367-.72131-6.68628-1.26538-9.31128-1.33374-9.63794l-.00256-.00513c-.057-.15356-1.40015-3.68189-3.66382-3.68189a2.86544,2.86544,0,0,0-1.78089.7212c-2.56872,2.05053-7.55444,6.46875-9.5791,8.27124a9.53194,9.53194,0,0,0-1.64868,1.89428,8.43715,8.43715,0,0,1-4.34021,3.43213,3.635,3.635,0,0,0-1.09705.55982,1.17215,1.17215,0,0,1-.71191.24,1.18742,1.18742,0,0,1-.74731-.26563,4.57631,4.57631,0,0,0-2.803-.68384c-.156,0-.31678.00293-.48511.00977a.21483.21483,0,0,1-.0354.002c-.08264.00293-.33106.01-.72363.01A40.62075,40.62075,0,0,1,40.56217,17.624a10.90623,10.90623,0,0,0-2.65576-.47339,1.18424,1.18424,0,0,1-1.10937-1.3833.31467.31467,0,0,0-.12793-.26684c-1.2157-1.09986-5.10132-5.56519-6.19654-9.47559l-.00732-.02075c-.10632-.303-1.12817-3.08667-3.21667-3.93384a.6994.6994,0,0,0-.26624-.05493.71866.71866,0,0,0-.5166.24683c-1.01441,1.03125-1.407,5.22973-1.36231,7.88354a15.03585,15.03585,0,0,1-.39746,3.65357l-1.45678,6.2915a.61693.61693,0,0,1-.01661.064.791.791,0,0,0,.026.58447.28981.28981,0,0,0,.08264.07763,1.18069,1.18069,0,0,1,.07129,1.98462c-1.64612,1.14942-3.47242,2.48365-3.99488,2.86451a8.406,8.406,0,0,1-.918.5747,6.6454,6.6454,0,0,0-1.28173,1.31934,5.62532,5.62532,0,0,1-1.92066,1.52319,10.27159,10.27159,0,0,0-5.67651,6.15869L8.26335,39.668c-.13721.43677-.27906.84619-.42554,1.21509a25.12675,25.12675,0,0,0-1.53064,6.02881,7.21658,7.21658,0,0,1-.64295,2.20507,31.20735,31.20735,0,0,1-2.24255,3.96851,2.7037,2.7037,0,0,0-.35718.75659A1.09649,1.09649,0,0,0,3.183,54.86841a1.17914,1.17914,0,0,1,.08521,1.2417l-.93189,1.76513c-.0216.03955-.04272.07788-.0664.11329-.09253.13183-.835,1.478.86548,7.65332,1.11181,4.04,2.11206,7.26171,2.75561,9.25317a18.36156,18.36156,0,0,0,3.3562,6.17261,14.30265,14.30265,0,0,0,1.47364,1.53979,1.18445,1.18445,0,0,1-.37159,1.9895c-.12048.04444-.25781.09473-.41369.14673-.49695.15845-.78076.81372-.79261,1.80469v.00684a1.07437,1.07437,0,0,1,.05909.09741,123.48635,123.48635,0,0,0,10.79712,15.81347,126.96,126.96,0,0,0,23.63305,22.585,4.74426,4.74426,0,0,0,5.65283,0,126.97525,126.97525,0,0,0,23.63306-22.585,123.63749,123.63749,0,0,0,16.41663-26.833c.41418-.92285.82556-1.87354,1.22546-2.82691a.218.218,0,0,1,.0188-.04028c-.36206-.48413-.68835-.929-.86353-1.23193A1.18566,1.18566,0,0,1,89.86027,70.15723Z" fill="#fff"/><path d="M92.19267,71.55835c-.14856-.19873-.29175-.38867-.41614-.56079a3.09966,3.09966,0,0,0,.61938-2.61841,3.19685,3.19685,0,0,0-.6333-1.30371,2.83235,2.83235,0,0,0,.30225-1.06567,3.8179,3.8179,0,0,0-1.40271-2.98145,2.62456,2.62456,0,0,0,.38269-1.35864,2.867,2.867,0,0,0-1.22644-2.2959c-.10681-.08643-.16492-.13574-.19885-.168a3.95418,3.95418,0,0,0-.06494-1.78125A5.94875,5.94875,0,0,0,87.97245,54.825c-.09-.09546-.19043-.20264-.26672-.28931l.005-.02343.002-.06714.001-.00586.00843-.04126v-.00586a3.66242,3.66242,0,0,0,.02453-.97217,3.30621,3.30621,0,0,0-1.23694-2.26221,1.46816,1.46816,0,0,1-.3601-.39355,3.22238,3.22238,0,0,1,.23913-1.91382,3.09277,3.09277,0,0,1,.24353-.38867,2.59189,2.59189,0,0,0,.51563-1.91089,2.74163,2.74163,0,0,0-1.37952-2.15185,4.86564,4.86564,0,0,0,.096-3.4834c-.05457-.16138-.10974-.36792-.1659-.57935a6.12508,6.12508,0,0,0-.98974-2.332,4.10053,4.10053,0,0,0-.56189-.55518,3.95909,3.95909,0,0,0-.10779-1.73168c-.33154-1.21216-1.4248-3.0857-3.005-3.21167a2.20721,2.20721,0,0,0,.00793-.45948l-.03748-.43017-.21105-.37671-.13624-.24414-.04138-.04224c.20667-.25781.42859-.53125.66468-.81763l.07519-.09155.06445-.09936.06055-.09351.05371-.10718c.2085-.42016,2.01367-4.31177,1.223-11.62671-.68383-6.34277-1.21765-9.13037-1.36474-9.83374l-.05457-.26269-.07531-.14771c-.40735-1.04492-2.13221-4.87939-5.50879-4.87939a4.81659,4.81659,0,0,0-3.04236,1.165c-2.46839,1.96972-7.11023,6.07007-9.65772,8.33716a11.57328,11.57328,0,0,0-1.9956,2.2976,6.41008,6.41008,0,0,1-3.27112,2.61621,5.755,5.755,0,0,0-1.1886.53028,7.08768,7.08768,0,0,0-3.55273-.7771c-.1825,0-.37036.0039-.56763.01172l-.094.0039c-.14026.00293-.32764.00586-.58252.00586a38.5327,38.5327,0,0,1-10.6471-1.48559,13.07216,13.07216,0,0,0-2.40344-.501,2.38456,2.38456,0,0,0-.72217-1.18359c-1.23535-1.1189-4.70679-5.28614-5.616-8.53223C32.13688,4.68188,30.847,1.355,28.00627.20288A2.70949,2.70949,0,0,0,26.98234,0a2.73738,2.73738,0,0,0-1.95459.85034c-1.96155,1.99439-1.95959,8.12158-1.939,9.32984a13.032,13.032,0,0,1-.34583,3.16455l-1.45679,6.2915a2.66715,2.66715,0,0,0,.19593,2.05933c-1.33338.94384-2.63526,1.89233-3.15918,2.2749a6.88589,6.88589,0,0,1-.79749.50586,6.875,6.875,0,0,0-1.88135,1.82519,3.62625,3.62625,0,0,1-1.23632.97315,12.208,12.208,0,0,0-6.71314,7.375L6.33671,39.07739c-.11707.373-.24207.73511-.37195,1.06177a27.33454,27.33454,0,0,0-1.65893,6.53662A5.20582,5.20582,0,0,1,3.84037,48.26a29.07417,29.07417,0,0,1-2.09729,3.71045,4.705,4.705,0,0,0-.62036,1.33227,3.22508,3.22508,0,0,0,.14746,2.27515L.55436,56.93457C-.347,58.21-.15951,61.26709,1.19255,66.177c1.12219,4.07666,2.13171,7.32862,2.78063,9.33789A20.37946,20.37946,0,0,0,7.6995,82.35864q.39258.47058.79407.89331a3.87308,3.87308,0,0,0-1.36572,3.27271L7.12,87.17993l.37915.54126a124.45528,124.45528,0,0,0,10.92956,16.00733,129.001,129.001,0,0,0,24.00794,22.94506,6.75961,6.75961,0,0,0,8.04834-.0039,128.96718,128.96718,0,0,0,24.00354-22.94116A125.6235,125.6235,0,0,0,91.17326,76.45874c.40747-.9082.81225-1.842,1.20642-2.77978l.61291-1.05079ZM43.63224,125.051a126.96,126.96,0,0,1-23.63305-22.585A123.48635,123.48635,0,0,1,9.20207,86.65259a1.07437,1.07437,0,0,0-.05909-.09741v-.00684c.01185-.991.29566-1.64624.79261-1.80469.15588-.052.29321-.10229.41369-.14673a1.18445,1.18445,0,0,0,.37159-1.9895,14.30265,14.30265,0,0,1-1.47364-1.53979A18.36156,18.36156,0,0,1,5.891,74.895c-.64355-1.99146-1.6438-5.21314-2.75561-9.25317-1.70044-6.1753-.958-7.52149-.86548-7.65332.02368-.03541.0448-.07374.0664-.11329l.93189-1.76513a1.17914,1.17914,0,0,0-.08521-1.2417A1.09649,1.09649,0,0,1,3.06449,53.842a2.7037,2.7037,0,0,1,.35718-.75659,31.20735,31.20735,0,0,0,2.24255-3.96851,7.21658,7.21658,0,0,0,.64295-2.20507,25.12675,25.12675,0,0,1,1.53064-6.02881c.14648-.3689.28833-.77832.42554-1.21509l1.35742-4.426a10.27159,10.27159,0,0,1,5.67651-6.15869,5.62532,5.62532,0,0,0,1.92066-1.52319,6.6454,6.6454,0,0,1,1.28173-1.31934,8.406,8.406,0,0,0,.918-.5747c.52246-.38086,2.34876-1.71509,3.99488-2.86451a1.18069,1.18069,0,0,0-.07129-1.98462.28981.28981,0,0,1-.08264-.07763.791.791,0,0,1-.026-.58447.61693.61693,0,0,0,.01661-.064l1.45678-6.2915a15.03585,15.03585,0,0,0,.39746-3.65357c-.04467-2.65381.3479-6.85229,1.36231-7.88354a.71866.71866,0,0,1,.5166-.24683.6994.6994,0,0,1,.26624.05493c2.0885.84717,3.11035,3.63086,3.21667,3.93384l.00732.02075c1.09522,3.9104,4.98084,8.37573,6.19654,9.47559a.31467.31467,0,0,1,.12793.26684,1.18424,1.18424,0,0,0,1.10937,1.3833,10.90623,10.90623,0,0,1,2.65576.47339,40.62075,40.62075,0,0,0,11.23951,1.57544c.39257,0,.641-.00708.72363-.01a.21483.21483,0,0,0,.0354-.002c.16833-.00684.3291-.00977.48511-.00977a4.57631,4.57631,0,0,1,2.803.68384,1.18742,1.18742,0,0,0,.74731.26563,1.17215,1.17215,0,0,0,.71191-.24,3.635,3.635,0,0,1,1.09705-.55982,8.43715,8.43715,0,0,0,4.34021-3.43213A9.53194,9.53194,0,0,1,64.394,14.001c2.02466-1.80249,7.01038-6.22071,9.5791-8.27124a2.86544,2.86544,0,0,1,1.78089-.7212c2.26367,0,3.60681,3.52833,3.66382,3.68189l.00256.00513c.06836.32666.61243,2.95166,1.33374,9.63794.73047,6.75976-.87964,10.22241-1.02442,10.51367l-.00439.00683c-.4541.551-.85852,1.05494-1.20142,1.49463a1.18453,1.18453,0,0,0,.43238,1.79785.10035.10035,0,0,1,.0404.03052.23691.23691,0,0,1,.038.04517,3.07814,3.07814,0,0,1-.52991,1.00268l-.01184.0188A6.235,6.235,0,0,0,77.528,35.051a1.18106,1.18106,0,0,0,.57471,1.30786.59674.59674,0,0,1,.3335.34741c.0094.0332.01636.06885.02368.102a1.18328,1.18328,0,0,0,2.10034.44678,2.20153,2.20153,0,0,0,.4137-.90625,2.96919,2.96919,0,0,0-.12293-1.41382.98406.98406,0,0,1-.05468-.39966l.01684-.00977a.15526.15526,0,0,1,.052-.01171c.28638,0,.984.83545,1.2251,1.717a1.97471,1.97471,0,0,1,.05469.977c-.00244.00488-.005.03052-.00745.0354a2.62558,2.62558,0,0,0-.026.70752,1.193,1.193,0,0,0,.426.79394c.05163.04346.12744.1045.182.14478a2.53892,2.53892,0,0,1,.42554.38574,4.8337,4.8337,0,0,1,.60559,1.57715c.06836.25781.13733.50879.20569.71142a2.858,2.858,0,0,1-.08508,2.155,1.76083,1.76083,0,0,0-.0542,1.52124,1.88891,1.88891,0,0,0,.79223.80884c.34522.22217.50867.35913.52979.66016a.61883.61883,0,0,1-.13477.56494,4.693,4.693,0,0,0-.62182,4.45825,3.26956,3.26956,0,0,0,.77087.915,1.36123,1.36123,0,0,1,.58643.95337,1.54714,1.54714,0,0,1-.03089.58447c0,.00513-.00451.02075-.00451.02881a1.83706,1.83706,0,0,0,.78772,1.97852,4.05719,4.05719,0,0,1,1.11377,1.7456,1.96375,1.96375,0,0,1,.01684.98,1.53519,1.53519,0,0,0,.09192,1.01172,2.5,2.5,0,0,0,.8324,1.00757c.3291.26758.4851.42407.48266.70947a.61609.61609,0,0,1-.25293.51538,1.18049,1.18049,0,0,0-.12048,1.69654c.14856.16528.32874.34546.45166.46533.59827.59448.986,1.01953.94861,1.51929a.9909.9909,0,0,1-.26526.5747,1.17834,1.17834,0,0,0,.10632,1.6128,1.56406,1.56406,0,0,1,.53467.80175c.11377.49219-.15832.85425-.52734,1.27246l-.04468.052a1.18566,1.18566,0,0,0-.14478,1.37671c.17518.303.50147.7478.86353,1.23193a.218.218,0,0,0-.0188.04028c-.3999.95337-.81128,1.90406-1.22546,2.82691a123.63749,123.63749,0,0,1-16.41663,26.833,126.97525,126.97525,0,0,1-23.63306,22.585,4.74426,4.74426,0,0,1-5.65283,0Z" fill="#0b0b16"/><path d="M73.33236,37.54182a.23556.23556,0,0,1-.40521.18591,11.17759,11.17759,0,0,1-1.82067-2.39119c-.31469-.8092-1.61842-1.02412-2.22236-1.17233a.71172.71172,0,0,1-.39387-.25914,12.11877,12.11877,0,0,0-5.30451-3.78835,5.05272,5.05272,0,0,1-2.55846-4.10479s.1033-.74889-2.38788-2.2962a.42021.42021,0,0,1-.14786-.55694h0a.23567.23567,0,0,1,.36431-.06186c.75108.6694,3.2507,2.57247,4.50159-.46625a11.13842,11.13842,0,0,1,.72686-1.4103,18.38514,18.38514,0,0,0,2.23255-5.97294c.24187-2.18316,5.45492-6.55242,7.45053-8.10122a3.42673,3.42673,0,0,1,2.39931-.73663,1.78945,1.78945,0,0,1,1.53052.90029A42.43256,42.43256,0,0,1,78.9841,11.68a15.71473,15.71473,0,0,1,.79342,3.79722,25.9397,25.9397,0,0,1-.16121,5.62775c-.64552,4.66212-2.53428,6.14444-2.53428,6.14444l-.41375.36056a.23652.23652,0,0,1-.32131-.00976h0a.48862.48862,0,0,1-.00347-.69567,9.22475,9.22475,0,0,0,2.48763-6.65625c.01205-2.04831-.00608-3.44272-.0313-4.37222a14.17462,14.17462,0,0,0-.48816-3.33961,13.98694,13.98694,0,0,0-1.73177-4.237c-1.01244-1.295-3.00449.09914-3.70405.65671-.244.19445-.49125.38266-.74452.56484L70.2167,10.89821a7.22359,7.22359,0,0,0-2.12449,2.38441,17.05826,17.05826,0,0,0-1.28881,3.11129c-.12162.38894-.2588.77457-.40939,1.15323l-1.64007,4.12394q-.12284.30887-.26324.61032l-.70157,1.50631a1.18384,1.18384,0,0,1-.38055.45986c-.63876.46205-2.21473,1.87164-.545,3.58492.95091.97571,1.48328,1.52522,1.78078,1.83394a.47307.47307,0,0,0,.7115-.03435l3.33044-4.20346s.25047-.40741-.333-.396a11.65325,11.65325,0,0,1-1.84179-.26311l4.2967-2.2191a.23651.23651,0,0,0-.07846-.44344l-2.61651-.29217a.72009.72009,0,0,1-.57117-.49392h0a.23653.23653,0,0,1,.158-.2979l3.51668-1.01193a.23652.23652,0,0,0-.02239-.45884L69.44465,19.212a.95487.95487,0,0,1-.54136-.29836c-.20263-.23221-.31541-.59087.38713-.9329.8161-.39731,2.24592-1.079,3.03749-1.45568a2.83188,2.83188,0,0,1,1.19644-.27468l1.1357-.00874a.23652.23652,0,0,1,.23833.23651h0a.52192.52192,0,0,1-.28038.46266l-1.91178.92968a.23652.23652,0,0,0,.00331.421L75.828,19.59361a.23652.23652,0,0,1-.02239.43256l-2.53888.83425a.23652.23652,0,0,0,.01142.45034l1.29564.05651a.236.236,0,0,1,.08116.42878c-.72739.47537-2.3769,1.567-2.72492,2.76116a.70128.70128,0,0,1-.4396.45111,6.06035,6.06035,0,0,0-4.05874,4.767.23752.23752,0,0,0,.234.26273c.30161.014.7971.22129,1.16658,1.29154a.2347.2347,0,0,0,.18838.15949,3.31031,3.31031,0,0,1,2.35965,1.69565.23616.23616,0,0,0,.40041.01227,32.27445,32.27445,0,0,1,3.36921-4.32245.11857.11857,0,0,1,.19191.13023L73.50473,33.391a4.02029,4.02029,0,0,0-.30817,1.37134A22.96371,22.96371,0,0,0,73.33236,37.54182Z" fill="#0b0b16"/><path d="M38.35819,67.68774a7.20493,7.20493,0,0,0-4.16.82007,7.11245,7.11245,0,0,1-3.90991.65991c-.17-.02-.34009-.02978-.51-.03979-4.4-.30005-9.78-2.80005-10.95-3.36011a2.79,2.79,0,0,1-.52-.31982,1.43829,1.43829,0,0,1-.36011-2.02,2.9001,2.9001,0,0,1,1.27-1.13013c3.3-1.59985,6.37012-6.42993,6.37012-6.42993,1.08984-1.99-1.06006-3.46-1.84009-4-.17993-.13013-.36-.25-.53-.39014-1.54-1.22-4.36-1.79-5.48-2.02a.23541.23541,0,0,1-.1-.40991,23.67978,23.67978,0,0,0,5.4-6.07007c1.62-2.61987,1.85-4.29,1.8-5.16992a1.619,1.619,0,0,0-.57007-1.14014,11.05553,11.05553,0,0,0-1.74-1.18994,4.42379,4.42379,0,0,0-3.62-.37988,6.06053,6.06053,0,0,0-2.13,1.31982,3.35105,3.35105,0,0,0-1.06006,2.63013,15.24284,15.24284,0,0,0,.26,2.05005c.37012,1.81982,2.97,2.65991,3.99,2.92993a.23126.23126,0,0,1,.1001.38989,79.74171,79.74171,0,0,1-7.15015,6.18018c-3.75989,2.8999-4.04993,5.48-3.98,6.35986a.23133.23133,0,0,0,.36011.18018s.49-.43994.53-.48c.60986-.64014,1-.47022,1.23-.2002a1.112,1.112,0,0,1,.23.76c-.12012,1.92994.37,2.12012.37,2.12012,2.93006,1.13989,3.67005,2.61011,3.86,3.28a3.66929,3.66929,0,0,0,.23.62988c.21.46.4,1.41016-1.01,2.23a1.95126,1.95126,0,0,1-2.56006-.77978,5.3719,5.3719,0,0,1-.92993-1.75,4.52521,4.52521,0,0,0-1.62-2.31006,1.18832,1.18832,0,0,0-1.91.50977.74075.74075,0,0,0,.24.83007c.1001.08008.18005.16016.26.23a2.58336,2.58336,0,0,1,.55005.91016,4.90582,4.90582,0,0,0,1.34,1.83984,3.84355,3.84355,0,0,0,.89.54c1.47.71,2.06006,2.97,2.28,4.25a5.9949,5.9949,0,0,0,.76,2.04c1.01,1.64014,3.12,4.54,5.73,5.05a24.01359,24.01359,0,0,0,8.17993-.25s3.86011-.88013,5.46008-1.06006,1.06995-.63989,1.06995-.63989a16.71739,16.71739,0,0,0-5.05-.15015,11.2927,11.2927,0,0,0-1.41992.21021c-5.17993,1.06982-7.51.36987-8.13.11987-.15-.07007-.31994-.11987-.48-.18994a7.95854,7.95854,0,0,1-3.86-3.41016c-1.69995-2.86987-.27-2.41992-.27-2.41992a15.1503,15.1503,0,0,0,5.61.84009,4.76929,4.76929,0,0,1,1.29993.1499c1.83008.47,6.86011,1.68994,8.4801,1.37988a5.82593,5.82593,0,0,0,2.81995-1.38989.45834.45834,0,0,1,.49-.07007,3.32,3.32,0,0,0,.65.22022,2.66559,2.66559,0,0,0,1.4-.06006,29.05583,29.05583,0,0,0,3.51-1.29C41.24821,68.02783,38.78825,67.75781,38.35819,67.68774Zm-20.87-26.65991a.19789.19789,0,0,1-.21-.16992,4.01908,4.01908,0,0,1,2.52-4.86011.1267.1267,0,0,1,.05993-.01.192.192,0,0,1,.19007.15992.18872.18872,0,0,1-.11011.2102c-2.08.8999-2.24,3.73-2.25,4.47A.20052.20052,0,0,1,17.4882,41.02783ZM19.84831,42.158c-.26,0-.46009,0-.96009-.53a1.04326,1.04326,0,0,1-.23-.91016c.02991-.09985.15-.25.25989-.24a1.73506,1.73506,0,0,1,1.14014.91993C20.41813,42.158,20.09831,42.158,19.84831,42.158Zm-4.31006,9.98975a.55087.55087,0,0,1-.49-.54981v-.07007a.23746.23746,0,0,1,.27-.21l5.81994.98a.20429.20429,0,0,1,.16.2.2.2,0,0,1-.22.2002Z" fill="#0b0b16"/><path d="M50.21818,39.47778A8.37269,8.37269,0,0,0,46.01823,37.658a4.04873,4.04873,0,0,0-2.48.50976,22.97142,22.97142,0,0,0-4.99,3.8501,2.61551,2.61551,0,0,0-.67,1.18994,2.272,2.272,0,0,0,.38,1.91016,10.05633,10.05633,0,0,0,3.67993,2.2,7.3206,7.3206,0,0,0,4.16016.41992,7.85747,7.85747,0,0,0,3.46-1.61987c3.15991-2.53,3.15991-3.07007,3.15991-3.07007S53.03825,41.7478,50.21818,39.47778Zm-4.15991,6.53c-.27.13013-.71-.09985-.95008-.2a1.13735,1.13735,0,0,1-.68005-.53,1.18438,1.18438,0,0,1-.04993-.41992.39394.39394,0,0,1,.08-.3.36409.36409,0,0,1,.23-.09009,1.94449,1.94449,0,0,1,.92.17994.99964.99964,0,0,1,.30994.19018,1.04862,1.04862,0,0,1,.19006.23C46.27824,45.33789,46.43815,45.81787,46.05827,46.00781Zm.37988-6.05981a1.08648,1.08648,0,0,1-.58.65991,9.33,9.33,0,0,1-1.42.18994,1.89544,1.89544,0,0,0-1.23,1.33008,5.2618,5.2618,0,0,0-.10986,1.8999,4.57592,4.57592,0,0,0,.1499,1.04,2.04559,2.04559,0,0,0,.5.82007c.15.15991.2.3999-.09.50977a.89352.89352,0,0,1-.57995-.0398,2.75445,2.75445,0,0,1-1.78-1.3,2.97867,2.97867,0,0,1-.16-1.33008,4.39141,4.39141,0,0,1,.26-1.52978,4.53041,4.53041,0,0,1,1.13-1.46021c.17993-.17993.37-.35986.56006-.53979a4.52689,4.52689,0,0,1,.78991-.66016,2.42854,2.42854,0,0,1,2.30994-.07007.47382.47382,0,0,1,.26.26A.41247.41247,0,0,1,46.43815,39.948Z" fill="#0b0b16"/><path d="M45.10819,45.80786a1.13735,1.13735,0,0,1-.68005-.53,1.18438,1.18438,0,0,1-.04993-.41992.39394.39394,0,0,1,.08-.3.36409.36409,0,0,1,.23-.09009,1.94449,1.94449,0,0,1,.92.17994.99964.99964,0,0,1,.30994.19018,1.04862,1.04862,0,0,1,.19006.23c.17.27.33.75-.04992.93994C45.78825,46.13794,45.34831,45.908,45.10819,45.80786Zm1.33-5.85986a1.08648,1.08648,0,0,1-.58.65991,9.33,9.33,0,0,1-1.42.18994,1.89544,1.89544,0,0,0-1.23,1.33008,5.2618,5.2618,0,0,0-.10986,1.8999,4.57592,4.57592,0,0,0,.1499,1.04,2.04559,2.04559,0,0,0,.5.82007c.15.15991.2.3999-.09.50977a.89352.89352,0,0,1-.57995-.0398,2.75445,2.75445,0,0,1-1.78-1.3,2.97867,2.97867,0,0,1-.16-1.33008,4.39141,4.39141,0,0,1,.26-1.52978,4.53041,4.53041,0,0,1,1.13-1.46021c.17993-.17993.37-.35986.56006-.53979a4.52689,4.52689,0,0,1,.78991-.66016,2.42854,2.42854,0,0,1,2.30994-.07007.47382.47382,0,0,1,.26.26A.41247.41247,0,0,1,46.43815,39.948ZM21.13822,52.29785a.20429.20429,0,0,1,.16.2.2.2,0,0,1-.22.2002l-5.54-.55029a.55087.55087,0,0,1-.49-.54981v-.07007a.23746.23746,0,0,1,.27-.21Z" fill="none"/></svg>