<svg xmlns="http://www.w3.org/2000/svg" viewBox="0 0 100 85">
    <g id='menu' >
        <rect y="35" width="100" height="15" rx="5" fill="#fff" />
        <rect width="100" height="15" rx="5" fill="#fff" />
        <rect y="70" width="100" height="15" rx="5" fill="#fff" />
    </g>
    <g id='close' >
        <path d="M60.60661,42.50012l26.51648-26.5166a5,5,0,0,0,0-7.071L83.58756,5.37683a4.99993,4.99993,0,0,0-7.071,0l-26.5166,26.5166L23.48356,5.37683a4.99994,4.99994,0,0,0-7.071,0L12.87687,8.91247a4.99994,4.99994,0,0,0,0,7.07105l26.5166,26.5166L12.87687,69.01648a4.99993,4.99993,0,0,0,0,7.071l3.53564,3.53565a5,5,0,0,0,7.07105,0L49.99992,53.10656l26.5166,26.51661a5,5,0,0,0,7.071,0l3.53553-3.53565a5,5,0,0,0,0-7.071Z" fill="#fff"/>
    </g>
</svg>
