<svg xmlns="http://www.w3.org/2000/svg" viewBox="0 0 98 98"><path d="M36.62,60.48a5.295,5.295,0,1,1,5.3-5.29A5.29415,5.29415,0,0,1,36.62,60.48Z"/><path d="M62.31,68.08a1.21806,1.21806,0,0,1,.08,1.72,22.6571,22.6571,0,0,1-26.78,0,1.21757,1.21757,0,0,1,1.3-1.97,20.65722,20.65722,0,0,0,24.18,0A1.21262,1.21262,0,0,1,62.31,68.08Z"/><path d="M66.68,55.19a5.3,5.3,0,1,1-5.3-5.3A5.30057,5.30057,0,0,1,66.68,55.19Z"/><path d="M49,0A49,49,0,1,0,98,49,49.0025,49.0025,0,0,0,49,0ZM80.67,56.83a18.6728,18.6728,0,0,1-8.03,17.5A39.59264,39.59264,0,0,1,49,81.46a39.572,39.572,0,0,1-23.64-7.13,18.6728,18.6728,0,0,1-8.03-17.5,7.52218,7.52218,0,0,1-.73-.41A7.98924,7.98924,0,0,1,14.14,45.4a8.26413,8.26413,0,0,1,.9-1.06A7.735,7.735,0,0,1,25.97,44.47,37.78126,37.78126,0,0,1,47.16,37.28l4.53-19.49a1.62089,1.62089,0,0,1,1.93-1.22L66.86,19.5a5.23683,5.23683,0,1,1-.55,2.93L54.29,19.77l-4.07,17.5A37.76728,37.76728,0,0,1,72.03,44.47a7.707,7.707,0,0,1,11.83.93,7.5248,7.5248,0,0,1,.41.73A7.98179,7.98179,0,0,1,80.67,56.83Z"/></svg>