<svg width="151" height="125" viewBox="0 0 151 125" fill="none" xmlns="http://www.w3.org/2000/svg">
<path d="M80.3002 40.5339V19.0311C80.3002 18.5368 80.7969 18.2897 81.0453 18.784L87.5022 25.2101C88.4956 26.1987 89.9857 26.1987 90.979 25.2101L94.7042 21.7499C95.6976 20.7612 95.6976 19.2783 94.7042 18.2897L77.0718 0.741473C76.0784 -0.247158 74.5883 -0.247158 73.5949 0.741473L55.9625 18.2897C54.9691 19.2783 54.9691 20.7612 55.9625 21.7499L59.4393 25.2101C60.4327 26.1987 61.9228 26.1987 62.9161 25.2101L69.3731 18.784C69.6214 18.5368 70.1181 18.784 70.1181 19.0311V40.5339C70.1181 42.0168 69.1247 43.0054 67.6347 43.0054H18.9592C17.4691 43.0054 16.4757 43.9941 16.4757 45.477V72.6644C16.4757 74.1473 17.4691 75.1359 18.9592 75.1359H23.9261C25.4161 75.1359 26.4095 74.1473 26.4095 72.6644V55.3633C26.4095 53.8804 27.4029 52.8917 28.8929 52.8917H67.883C69.3731 52.8917 70.3665 53.8804 70.3665 55.3633V72.6644C70.3665 74.1473 71.3598 75.1359 72.8499 75.1359H77.8168C79.3069 75.1359 80.3002 74.1473 80.3002 72.6644V55.3633C80.3002 53.8804 81.2936 52.8917 82.7837 52.8917H121.774C123.264 52.8917 124.257 53.8804 124.257 55.3633V72.6644C124.257 74.1473 125.251 75.1359 126.741 75.1359H131.708C133.198 75.1359 134.191 74.1473 134.191 72.6644V45.477C134.191 43.9941 133.198 43.0054 131.708 43.0054H82.7837C81.2936 43.0054 80.3002 42.0168 80.3002 40.5339Z" fill="#EF0044"/>
<path d="M20.4492 83.2921L1.82341 92.6841C0.830032 92.9313 0.333344 93.9199 0.333344 94.9086V113.198C0.333344 114.187 0.830032 114.928 1.82341 115.423L20.4492 124.815C21.1943 125.062 21.9393 125.062 22.6843 124.815L41.3102 115.423C42.0552 114.928 42.8002 114.187 42.8002 113.198V94.9086C42.8002 93.9199 42.3035 93.1785 41.3102 92.6841L22.6843 83.2921C21.9393 83.045 20.9459 83.045 20.4492 83.2921ZM6.54195 92.9313L20.2009 86.0109C20.9459 85.7637 21.691 85.7637 22.436 86.0109L36.0949 92.9313C37.0883 93.4256 37.0883 94.6614 36.0949 95.1557L22.436 102.076C21.691 102.323 20.9459 102.323 20.2009 102.076L6.54195 95.1557C5.54858 94.6614 5.54858 93.4256 6.54195 92.9313ZM38.5784 113.693L24.4227 120.86C23.6777 121.107 22.6843 120.613 22.6843 119.624V106.278C22.6843 105.289 23.181 104.548 24.1744 104.053L38.33 96.8858C39.0751 96.3915 40.0684 97.133 40.0684 97.8744V111.468C40.0684 112.457 39.5718 113.198 38.5784 113.693Z" fill="#EF0044"/>
<path d="M74.0916 83.2921L55.4658 92.6841C54.7208 93.1785 53.9757 93.9199 53.9757 94.9086V113.198C53.9757 114.187 54.4724 114.928 55.4658 115.423L74.0916 124.815C74.8367 125.062 75.5817 125.062 76.3267 124.815L94.9525 115.423C95.6976 114.928 96.4426 114.187 96.4426 113.198V94.9086C96.4426 93.9199 95.9459 93.1785 94.9525 92.6841L76.3267 83.2921C75.5817 83.045 74.8367 83.045 74.0916 83.2921ZM60.4327 92.9313L74.0916 86.0109C74.8367 85.7637 75.5817 85.7637 76.3267 86.0109L89.9857 92.9313C90.979 93.4256 90.979 94.6614 89.9857 95.1557L76.3267 102.076C75.5817 102.323 74.8367 102.323 74.0916 102.076L60.4327 95.1557C59.4393 94.6614 59.4393 93.4256 60.4327 92.9313ZM92.4691 113.693L78.3135 120.86C77.5684 121.354 76.5751 120.613 76.5751 119.871V106.278C76.5751 105.289 77.0718 104.548 78.0651 104.053L92.2208 96.8858C92.9658 96.3915 93.9592 97.133 93.9592 97.8744V111.468C93.9592 112.457 93.4625 113.198 92.4691 113.693Z" fill="#EF0044"/>
<path d="M127.982 83.2921L109.357 92.6841C108.611 93.1785 107.866 93.9199 107.866 94.9086V113.198C107.866 114.187 108.363 114.928 109.357 115.423L127.982 124.815C128.727 125.062 129.472 125.062 130.217 124.815L148.843 115.423C149.588 114.928 150.333 114.187 150.333 113.198V94.9086C150.333 93.9199 149.837 93.1785 148.843 92.6841L130.217 83.2921C129.472 83.045 128.727 83.045 127.982 83.2921ZM114.323 92.9313L127.982 86.0109C128.727 85.7637 129.472 85.7637 130.217 86.0109L143.876 92.9313C144.87 93.4256 144.87 94.6614 143.876 95.1557L130.217 102.076C129.472 102.323 128.727 102.323 127.982 102.076L114.323 95.1557C113.33 94.6614 113.33 93.4256 114.323 92.9313ZM146.36 113.693L132.204 120.86C131.459 121.354 130.466 120.613 130.466 119.871V106.278C130.466 105.289 130.962 104.548 131.956 104.053L146.111 96.8858C146.857 96.3915 147.85 97.133 147.85 97.8744V111.468C147.85 112.457 147.105 113.198 146.36 113.693Z" fill="#EF0044"/>
</svg>
