<svg width="150" height="105" viewBox="0 0 150 105" fill="none" xmlns="http://www.w3.org/2000/svg">
<path d="M109.018 27.6031H128.839C129.375 27.6031 129.643 28.1443 129.107 28.4149L122.411 35.451C121.339 36.5335 121.339 38.1572 122.411 39.2397L126.161 43.0284C127.232 44.1108 128.839 44.1108 129.911 43.0284L148.929 23.8144C150 22.732 150 21.1082 148.929 20.0258L129.911 0.811856C128.839 -0.270619 127.232 -0.270619 126.161 0.811856L122.411 4.60052C121.339 5.68299 121.339 7.3067 122.411 8.38918L129.375 15.4253C129.643 15.6959 129.375 16.2371 129.107 16.2371H104.464C103.393 16.2371 102.321 16.7784 101.518 17.3196L43.3929 76.8557C42.5893 77.6675 41.5179 77.9381 40.4464 77.9381H20.625C20.0893 77.9381 19.8214 77.3969 20.3571 77.1263L27.3214 70.0902C28.3929 69.0077 28.3929 67.384 27.3214 66.3015L23.5714 62.5129C22.5 61.4304 20.8929 61.4304 19.8214 62.5129L6.42857 76.0438L0.803571 81.4562C-0.267857 82.5387 -0.267857 84.1624 0.803571 85.2448L19.5536 104.188C20.625 105.271 22.2321 105.271 23.3036 104.188L27.0536 100.399C28.125 99.317 28.125 97.6933 27.0536 96.6108L20.3571 89.5747C20.0893 89.3041 20.3571 88.7629 20.625 88.7629H45C46.0714 88.7629 47.1429 88.2216 47.9464 87.6804L106.071 28.9562C106.875 27.8737 107.946 27.6031 109.018 27.6031Z" fill="#EF0044"/>
<path d="M122.411 69.8196L129.375 76.8557C129.643 77.1263 129.375 77.6675 129.107 77.6675H109.286C108.214 77.6675 107.143 77.1263 106.339 76.5851L90.2679 60.3479C89.1964 59.2655 87.5893 59.2655 86.5179 60.3479L82.7679 64.1366C81.6964 65.2191 81.6964 66.8428 82.7679 67.9253L102.054 87.4098C102.857 88.2217 103.929 88.4923 105 88.4923H129.375C129.911 88.4923 130.179 89.0335 129.643 89.3041L122.679 96.3402C121.607 97.4227 121.607 99.0464 122.679 100.129L126.429 103.918C127.5 105 129.107 105 130.179 103.918L149.196 84.7036C150.268 83.6211 150.268 81.9974 149.196 80.9149L130.179 61.701C129.107 60.6186 127.5 60.6186 126.429 61.701L122.679 65.4897C121.339 67.1134 121.339 69.0077 122.411 69.8196Z" fill="#EF0044"/>
<path d="M27.3214 35.451L20.3571 28.4149C20.0893 28.1443 20.3571 27.6031 20.625 27.6031H40.4464C41.5179 27.6031 42.5893 28.1443 43.3929 28.6856L59.4643 44.9227C60.5357 46.0052 62.1429 46.0052 63.2143 44.9227L66.9643 41.134C68.0357 40.0515 68.0357 38.4278 66.9643 37.3454L47.6786 17.8608C46.875 17.049 45.8036 16.7784 44.7321 16.7784H20.625C20.0893 16.7784 19.8214 16.2371 20.3571 15.9665L27.3214 8.93041C28.3929 7.84794 28.3929 6.22423 27.3214 5.14175L23.5714 1.08247C22.5 0 20.8929 0 19.8214 1.08247L0.803571 20.2964C-0.267857 21.3789 -0.267857 23.0026 0.803571 24.0851L19.8214 43.299C20.8929 44.3814 22.5 44.3814 23.5714 43.299L27.3214 39.5103C28.3929 38.1572 28.3929 36.5335 27.3214 35.451Z" fill="#EF0044"/>
</svg>
