<svg xmlns="http://www.w3.org/2000/svg" viewBox="0 0 557.48535 51.22638"><path d="M34.25537,42.689H10.28271a1.03408,1.03408,0,0,1-1.03417-1.03411V1.7453A1.034,1.034,0,0,0,8.21436.71124H1.03418A1.034,1.034,0,0,0,0,1.7453V49.48108a1.034,1.034,0,0,0,1.03418,1.03406H34.25537a1.034,1.034,0,0,0,1.03418-1.03406V43.723A1.034,1.034,0,0,0,34.25537,42.689Z" fill="#fff"/><path d="M76.25391,1.32343A1.03443,1.03443,0,0,0,75.31152.7149H67.54883a1.0335,1.0335,0,0,0-.94287.60956L45.11719,49.0575a1.034,1.034,0,0,0,.94287,1.45855h7.25537a1.03462,1.03462,0,0,0,.95166-.62909L58.9043,38.99249l3.13623-7.26422,8.36767-19.5531a1.03436,1.03436,0,0,1,1.90039-.00311l7.82129,18.11218a1.03437,1.03437,0,0,1-.9497,1.444H68.33691a1.03394,1.03394,0,0,0-.94921.62421l-2.24317,5.1961a1.03387,1.03387,0,0,0,.94922,1.44391H83.12549a1.03392,1.03392,0,0,1,.94922.62384l4.44043,10.27588a1.03493,1.03493,0,0,0,.94922.62384h7.39843a1.034,1.034,0,0,0,.94239-1.45959Z" fill="#fff"/><path d="M166.72656.71124h-5.98828a1.033,1.033,0,0,0-.89111.50971L141.60693,32.22351a1.03408,1.03408,0,0,1-1.77832.00708l-18.584-31.01678a1.03341,1.03341,0,0,0-.88672-.50257h-5.99268a1.03392,1.03392,0,0,0-1.03369,1.03406V49.48108a1.03392,1.03392,0,0,0,1.03369,1.03406h6.75489a1.03392,1.03392,0,0,0,1.03369-1.03406V21.61847a1.03407,1.03407,0,0,1,1.91748-.53748l14.144,23.246a1.03415,1.03415,0,0,0,.88379.49658h2.959a1.03424,1.03424,0,0,0,.8872-.50275l14.14942-23.6239a1.03419,1.03419,0,0,1,1.92138.52905l.06055,28.25739a1.03425,1.03425,0,0,0,1.03418,1.0318h6.68408a1.0343,1.0343,0,0,0,1.03418-1.03553l-.06836-47.73577A1.03438,1.03438,0,0,0,166.72656.71124Z" fill="#fff"/><path d="M226.90332,25.31769a1.02093,1.02093,0,0,1-.18359-1.73114,11.95027,11.95027,0,0,0,4.78466-9.92523c0-7.9007-6.40332-12.94642-18.35742-12.94642H190.84424A1.034,1.034,0,0,0,189.81006,1.749V49.482a1.034,1.034,0,0,0,1.03418,1.03406h7.18017a1.034,1.034,0,0,0,1.03418-1.03406V9.00378a1.034,1.034,0,0,1,1.03418-1.03405h12.062c6.40332,0,10.02587,2.2749,10.02587,6.89923,0,4.559-3.62255,6.83362-10.02587,6.83362h-6.44532a1.03407,1.03407,0,0,0-1.03418,1.03405v5.11176a1.03409,1.03409,0,0,0,1.03418,1.03412H213.999c6.97412,0,10.74659,2.20929,10.74659,7.18921,0,4.98016-3.77247,7.18951-10.74659,7.18951h-8.28955a1.034,1.034,0,0,0-1.03418,1.03406V49.482a1.034,1.034,0,0,0,1.03418,1.03406h8.86035c12.80616,0,19.49952-4.98016,19.49952-13.51733C234.06934,31.2796,231.23828,27.34088,226.90332,25.31769Z" fill="#fff"/><path d="M275.75342,0C260.314,0,248.93018,10.88593,248.93018,25.61316c0,14.72821,11.38378,25.61322,26.82324,25.61322,15.43847,0,26.82275-10.81464,26.82275-25.61322C302.57617,10.81464,291.19189,0,275.75342,0Zm17.50049,25.58545C277.76611,25.38287,275.9834,23.6,275.78076,8.11169,285.78857,8.12524,293.24023,15.43573,293.25391,25.58545ZM275.72559,8.11176C275.523,23.6,273.74023,25.38287,258.25244,25.58545,258.26611,15.436,265.71729,8.12567,275.72559,8.11176ZM258.25244,25.64087c15.48779.20257,17.27051,1.98547,17.47315,17.47369C265.71729,43.10065,258.26611,35.79132,258.25244,25.64087Zm17.52832,17.47375c.20264-15.48822,1.98535-17.27118,17.47315-17.47375C293.24023,35.79156,285.78857,43.10107,275.78076,43.11462Z" fill="#fff"/><path d="M342.69531.7149H321.96484A1.03393,1.03393,0,0,0,320.93115,1.749V49.482a1.03392,1.03392,0,0,0,1.03369,1.03406h7.18067a1.03434,1.03434,0,0,0,1.03418-1.03406V9.57489a1.034,1.034,0,0,1,1.03369-1.03406h11.06055c11.09277,0,18.28222,6.75867,18.28222,17.07465,0,10.31592-7.18945,17.07458-18.28222,17.07458h-5.44385a1.034,1.034,0,0,0-1.03369,1.03406V49.482a1.03392,1.03392,0,0,0,1.03369,1.03406h5.86523c16.15723,0,27.18457-9.96032,27.18457-24.90057S358.85254.7149,342.69531.7149Z" fill="#fff"/><path d="M411.49561,0c-15.43946,0-26.82325,10.88593-26.82325,25.61316,0,14.72821,11.38379,25.61322,26.82325,25.61322,15.43847,0,26.82275-10.81464,26.82275-25.61322C438.31836,10.81464,426.93408,0,411.49561,0Zm0,43.11584c-10.03174,0-17.50245-7.32794-17.50245-17.50268,0-10.17377,7.47071-17.50269,17.50245-17.50269,10.03125,0,17.502,7.32892,17.502,17.50269C428.99756,35.7879,421.52686,43.11584,411.49561,43.11584Z" fill="#fff"/><path d="M480.50439,8.11047a18.38324,18.38324,0,0,1,13.01123,5.00171,1.03944,1.03944,0,0,0,1.4336-.00494l4.39941-4.2923a1.03077,1.03077,0,0,0,.03809-1.44665C494.70947,2.51746,488.00732,0,480.07764,0,464.49658,0,453.1123,10.74329,453.1123,25.61316S464.49658,51.22638,479.936,51.22638c6.86425,0,13.93115-2.02741,19.09423-6.01532a1.04478,1.04478,0,0,0,.40039-.82727V26.07861a1.034,1.034,0,0,0-1.03418-1.03405h-6.6831a1.034,1.034,0,0,0-1.03418,1.03405V39.93646a1.04188,1.04188,0,0,1-.542.91889,20.31711,20.31711,0,0,1-9.7041,2.26049c-10.5293,0-18-7.39929-18-17.50268C462.43311,15.29681,469.90381,8.11047,480.50439,8.11047Z" fill="#fff"/><path d="M556.45166,42.75568H530.41748a1.03435,1.03435,0,0,1-1.03418-1.03406V30.06622a1.03434,1.03434,0,0,1,1.03418-1.03405h21.97119a1.034,1.034,0,0,0,1.03418-1.03406v-5.5517a1.034,1.034,0,0,0-1.03418-1.03406H530.41748a1.03434,1.03434,0,0,1-1.03418-1.03405V15.11658a1.034,1.034,0,0,0-1.03369-1.03406H521.169a1.03407,1.03407,0,0,0-1.03418,1.03406V49.482a1.034,1.034,0,0,0,1.03418,1.03406h35.28271a1.03392,1.03392,0,0,0,1.03369-1.03406V43.78973A1.03392,1.03392,0,0,0,556.45166,42.75568Z" fill="#fff"/><path d="M521.16882.7149h34.28088a1.03418,1.03418,0,0,1,1.03418,1.03418V7.43182a1.03406,1.03406,0,0,1-1.03406,1.03406H521.16895a1.03418,1.03418,0,0,1-1.03418-1.03418V1.749A1.03406,1.03406,0,0,1,521.16882.7149Z" fill="#fff"/></svg>