<svg xmlns="http://www.w3.org/2000/svg" viewBox="0 0 800 754"><path d="M400,299H301V246h-2v49a50.01833,50.01833,0,0,1-50,50H200v2h99v53h2V351a50.01875,50.01875,0,0,1,50-50h49Z" fill="#e0003b"/><path d="M701,53V0h-2V49a50.01833,50.01833,0,0,1-50,50H600v2h99v53h2V105a50.01875,50.01875,0,0,1,50-50h49V53Z" fill="#e0003b"/><path d="M101,600H99v49a50.01833,50.01833,0,0,1-50,50H0v2H99v53h2V705a50.01875,50.01875,0,0,1,50-50h49v-2H101Z" fill="#e0003b"/><path d="M501,354h-2v49a50.01833,50.01833,0,0,1-50,50H400v2h99V557a50.01833,50.01833,0,0,1-50,50H400v2h99v53h2V613a50.01875,50.01875,0,0,1,50-50h49v-2H501V459a50.01875,50.01875,0,0,1,50-50h49v-2H501Z" fill="#e0003b"/><path d="M701,259a50.01875,50.01875,0,0,1,50-50h49v-2H701V154h-2v49a50.01833,50.01833,0,0,1-50,50H501V151a50.01875,50.01875,0,0,1,50-50h49V99H501V46h-2V95a50.01833,50.01833,0,0,1-50,50H301V92h-2v49a50.01833,50.01833,0,0,1-50,50H101V138H99v49a50.01833,50.01833,0,0,1-50,50H0v2H99V341a50.01833,50.01833,0,0,1-50,50H0v2H99V495a50.01833,50.01833,0,0,1-50,50H0v2H99v53h2V551a50.01875,50.01875,0,0,1,50-50H299V603a50.01833,50.01833,0,0,1-50,50H200v2h99v53h2V659a50.01875,50.01875,0,0,1,50-50h49v-2H301V505a50.01875,50.01875,0,0,1,50-50h49v-2H301V400h-2v49a50.01833,50.01833,0,0,1-50,50H101V397a50.01875,50.01875,0,0,1,50-50h49v-2H101V243a50.01875,50.01875,0,0,1,50-50H299v53h2V197a50.01875,50.01875,0,0,1,50-50H499V249a50.01833,50.01833,0,0,1-50,50H400v2h99v53h2V305a50.01875,50.01875,0,0,1,50-50H699V357a50.01833,50.01833,0,0,1-50,50H600v2h99V511a50.01833,50.01833,0,0,1-50,50H600v2h99v53h2V567a50.01875,50.01875,0,0,1,50-50h49v-2H701V413a50.01875,50.01875,0,0,1,50-50h49v-2H701V259Z" fill="#fff"/></svg>